<?xml version="1.0" encoding="utf-8"?>
<!-- Generator: Adobe Illustrator 16.0.0, SVG Export Plug-In . SVG Version: 6.00 Build 0)  -->
<!DOCTYPE svg PUBLIC "-//W3C//DTD SVG 1.1//EN" "http://www.w3.org/Graphics/SVG/1.1/DTD/svg11.dtd">
<svg version="1.1" id="Layer_1" xmlns="http://www.w3.org/2000/svg" xmlns:xlink="http://www.w3.org/1999/xlink" x="0px" y="0px"
	 width="24px" height="39px" viewBox="0 0 24 39" enable-background="new 0 0 24 39" xml:space="preserve">
<g>
	<path fill="#F1F2F2" d="M20.712,16.765h-6.691V6.783c2.328,0.085,5.569,1.148,6.008,6.33h0.678V6.127h-6.686V2.539
		c0,0-0.1-1.451,2.056-1.866V0h-2.077H9.976H7.898v0.673c2.154,0.415,2.055,1.866,2.055,1.866v3.588H3.269v6.986h0.676
		C4.382,7.924,7.627,6.86,9.953,6.78v9.985h-6.69c0,0-2.654,0.011-2.654,3.782v12.771c0,3.769,2.654,3.779,2.654,3.779h2.918h0.371
		v1.046h0.934v-2.77H6.551v1.042c-0.74-0.174-2.248-0.875-2.248-3.723V21.285c0-3.77,2.654-3.781,2.654-3.781h2.996v6.479v5.17
		v7.943h4.068v-7.943v-5.17v-6.479h2.997c0,0,2.651,0.011,2.651,3.781v11.407c0,2.86-1.52,3.556-2.257,3.725v-1.044h-0.937v2.77
		h0.937v-1.048c0.002,0.002,0.382,0.002,0.382,0.002h2.918c0,0,2.653-0.011,2.653-3.779V20.547
		C23.365,16.776,20.712,16.765,20.712,16.765"/>
</g>
</svg>
